<svg width="24" height="24" viewBox="0 0 24 24" fill="none" xmlns="http://www.w3.org/2000/svg">
<path d="M20 7H4C2.89543 7 2 7.89543 2 9V19C2 20.1046 2.89543 21 4 21H20C21.1046 21 22 20.1046 22 19V9C22 7.89543 21.1046 7 20 7Z" stroke="#3C83F6" stroke-width="1.5" stroke-linecap="round" stroke-linejoin="round"/>
<path d="M16 21.3333V5.33331C16 4.80288 15.7893 4.29417 15.4142 3.9191C15.0391 3.54403 14.5304 3.33331 14 3.33331H10C9.46957 3.33331 8.96086 3.54403 8.58579 3.9191C8.21071 4.29417 8 4.80288 8 5.33331V21.3333" stroke="#3C83F6" stroke-width="1.5" stroke-linecap="round" stroke-linejoin="round"/>
</svg>
