<svg width="24" height="24" viewBox="0 0 24 24" fill="none" xmlns="http://www.w3.org/2000/svg">
<g clip-path="url(#clip0_512_289)">
<path d="M12 13.9999C11.9 13.9999 11.8 13.9999 11.7 13.8999L0.7 9.8999C0.3 9.7999 0 9.3999 0 8.9999C0 8.5999 0.3 8.1999 0.7 8.0999L11.7 4.0999C11.9 3.9999 12.2 3.9999 12.4 4.0999L23.4 8.0999C23.7 8.1999 24 8.5999 24 8.9999C24 9.3999 23.7 9.7999 23.3 9.8999L12.3 13.8999C12.2 13.9999 12.1 13.9999 12 13.9999ZM3.9 8.9999L12 11.8999L20.1 8.9999L12 6.0999L3.9 8.9999Z" fill="#3C83F6"/>
<path d="M19 20.0001H12C11.4 20.0001 11 19.6001 11 19.0001C11 18.4001 11.4 18.0001 12 18.0001H18C17.9 15.4001 17.3 13.2001 16.3 11.6001C16 11.1001 16.2 10.5001 16.6 10.2001C17.1 9.90011 17.7 10.1001 18 10.5001C19.3 12.6001 20 15.5001 20 18.9001C20 19.6001 19.6 20.0001 19 20.0001Z" fill="#3C83F6"/>
<path d="M12 20H5C4.4 20 4 19.6 4 19C4 15.6 4.7 12.7 6 10.6C6.3 10.1 6.9 10 7.4 10.3C7.9 10.6 8 11.2 7.7 11.7C6.7 13.3 6.1 15.5 6 18.1H12C12.6 18.1 13 18.5 13 19.1C13 19.7 12.6 20 12 20ZM22 20C21.4 20 21 19.6 21 19V9C21 8.4 21.4 8 22 8C22.6 8 23 8.4 23 9V19C23 19.6 22.6 20 22 20Z" fill="#3C83F6"/>
</g>
<defs>
<clipPath id="clip0_512_289">
<rect width="24" height="24" fill="white"/>
</clipPath>
</defs>
</svg>
