<svg width="27" height="27" viewBox="0 0 27 27" fill="none" xmlns="http://www.w3.org/2000/svg">
<path d="M13.5 18C15.9853 18 18 15.9853 18 13.5C18 11.0147 15.9853 9 13.5 9C11.0147 9 9 11.0147 9 13.5C9 15.9853 11.0147 18 13.5 18Z" stroke="black" stroke-width="2.25" stroke-linecap="round" stroke-linejoin="round"/>
<path d="M18 9.00003V14.625C18 15.5201 18.3556 16.3786 18.9885 17.0115C19.6215 17.6445 20.4799 18 21.375 18C22.2701 18 23.1286 17.6445 23.7615 17.0115C24.3944 16.3786 24.75 15.5201 24.75 14.625V13.5C24.7499 10.9609 23.8908 8.49657 22.3124 6.50763C20.7341 4.51869 18.5294 3.12216 16.0567 2.54512C13.5841 1.96808 10.9889 2.24446 8.69328 3.32932C6.39762 4.41419 4.53646 6.24373 3.41243 8.52047C2.28839 10.7972 1.9676 13.3872 2.5022 15.8694C3.0368 18.3516 4.39536 20.5799 6.35697 22.1921C8.31858 23.8042 10.7679 24.7054 13.3066 24.7491C15.8453 24.7927 18.3241 23.9763 20.34 22.4325" stroke="black" stroke-width="2.25" stroke-linecap="round" stroke-linejoin="round"/>
</svg>
