<svg width="36" height="36" viewBox="0 0 36 36" fill="none" xmlns="http://www.w3.org/2000/svg">
<path d="M30 10.5H6C4.34315 10.5 3 11.8431 3 13.5V28.5C3 30.1569 4.34315 31.5 6 31.5H30C31.6569 31.5 33 30.1569 33 28.5V13.5C33 11.8431 31.6569 10.5 30 10.5Z" stroke="white" stroke-width="3" stroke-linecap="round" stroke-linejoin="round"/>
<path d="M24 32V8C24 7.20435 23.6839 6.44129 23.1213 5.87868C22.5587 5.31607 21.7956 5 21 5H15C14.2044 5 13.4413 5.31607 12.8787 5.87868C12.3161 6.44129 12 7.20435 12 8V32" stroke="white" stroke-width="3" stroke-linecap="round" stroke-linejoin="round"/>
</svg>
