<svg width="100" height="100" viewBox="0 0 100 100" fill="none" xmlns="http://www.w3.org/2000/svg">
<path fill-rule="evenodd" clip-rule="evenodd" d="M23.0189 20.4272V24.0872H19.3252V20.4272H23.0189ZM23.0189 30.445V34.1049H19.3252V30.445H23.0189ZM23.0189 40.4625V44.1225H19.3252V40.4625H23.0189ZM23.0189 50.4803V54.1403H19.3252V50.4803H23.0189ZM31.8875 20.4272V24.0872H28.1937V20.4272H31.8875ZM31.8875 30.445V34.1049H28.1937V30.445H31.8875ZM31.8875 40.4625V44.1225H28.1937V40.4625H31.8875ZM31.8875 50.4803V54.1403H28.1937V50.4803H31.8875ZM93.1809 88.3792H6.81875V92.4741H93.1811V88.3792H93.1809ZM76.6924 84.6854H86.7535V32.2934L76.6924 27.1782V84.6856V84.6854ZM49.8082 84.6854H72.9986V26.0159H53.6932H53.6852H49.8082V84.6854ZM41.0709 84.6854V8.68032L51.8463 14.1409V22.3219H47.9613C46.9414 22.3219 46.1145 23.1489 46.1145 24.1688V84.6852L41.0709 84.6854ZM4.97188 84.6854C3.95195 84.6854 3.125 85.5124 3.125 86.5323V94.3209C3.125 95.3409 3.95195 96.1678 4.97188 96.1678H95.0279C96.0479 96.1678 96.8748 95.3409 96.8748 94.3209V86.5323C96.8748 85.5124 96.0479 84.6854 95.0279 84.6854H90.4475V31.162H90.4465C90.4459 30.4901 90.0773 29.8426 89.4375 29.517L75.7473 22.5567C75.4807 22.4073 75.1732 22.3219 74.8459 22.3219H55.5404V13.0116H55.5361C55.5355 12.3387 55.165 11.6905 54.5232 11.3666L40.1756 4.09575C39.8979 3.92856 39.5725 3.83228 39.2244 3.83228H12.3398C11.3199 3.83228 10.493 4.65923 10.493 5.67915V84.6852L4.97188 84.6854ZM28.2445 84.6854H23.3193V75.8965H28.2445V84.6854ZM19.6256 84.6854V74.0497C19.6256 73.0297 20.4525 72.2028 21.4725 72.2028H30.0914C31.1113 72.2028 31.9383 73.0297 31.9383 74.0497V84.6854H37.3771V7.52603H14.1867V84.6852L19.6256 84.6854ZM23.0189 60.4981V64.1581H19.3252V60.4981H23.0189ZM31.8875 60.4981V64.1581H28.1937V60.4981H31.8875ZM59.0402 38.9311V42.5909H55.3465V38.9311H59.0402ZM59.0402 48.9489V52.6086H55.3465V48.9489H59.0402ZM59.0402 58.9665V62.6264H55.3465V58.9665H59.0402ZM67.9088 38.9311V42.5909H64.215V38.9311H67.9088ZM67.9088 48.9489V52.6086H64.215V48.9489H67.9088ZM67.9088 58.9665V62.6264H64.215V58.9665H67.9088ZM59.0402 68.9844V72.6444H55.3465V68.9844H59.0402ZM67.9088 68.9844V72.6444H64.215V68.9844H67.9088Z" fill="currentColor"/>
</svg>
