<svg width="22" height="22" viewBox="0 0 22 22" fill="none" xmlns="http://www.w3.org/2000/svg">
<g clip-path="url(#clip0_589_246)">
<path d="M10.7522 0.896118V20.6081" stroke="white" stroke-width="1.5" stroke-linecap="round" stroke-linejoin="round"/>
<path d="M15.2322 4.4801H8.51222C7.6805 4.4801 6.88285 4.8105 6.29473 5.39862C5.70662 5.98673 5.37622 6.78438 5.37622 7.6161C5.37622 8.44782 5.70662 9.24548 6.29473 9.83359C6.88285 10.4217 7.6805 10.7521 8.51222 10.7521H12.9922C13.8239 10.7521 14.6216 11.0825 15.2097 11.6706C15.7978 12.2587 16.1282 13.0564 16.1282 13.8881C16.1282 14.7198 15.7978 15.5175 15.2097 16.1056C14.6216 16.6937 13.8239 17.0241 12.9922 17.0241H5.37622" stroke="white" stroke-width="1.5" stroke-linecap="round" stroke-linejoin="round"/>
</g>
<defs>
<clipPath id="clip0_589_246">
<rect width="21.504" height="21.504" fill="white"/>
</clipPath>
</defs>
</svg>
