<svg width="23" height="23" viewBox="0 0 23 23" fill="none" xmlns="http://www.w3.org/2000/svg">
<path d="M16.625 1.86294C16.8986 1.58936 17.2234 1.37234 17.5808 1.22427C17.9383 1.07621 18.3214 1 18.7083 1C19.0952 1 19.4784 1.07621 19.8358 1.22427C20.1933 1.37234 20.5181 1.58936 20.7917 1.86294C21.0653 2.13653 21.2823 2.46133 21.4303 2.81879C21.5784 3.17625 21.6546 3.55937 21.6546 3.94628C21.6546 4.33319 21.5784 4.71631 21.4303 5.07377C21.2823 5.43123 21.0653 5.75602 20.7917 6.02961L6.72917 20.0921L1 21.6546L2.5625 15.9254L16.625 1.86294Z" stroke="#3C83F6" stroke-width="2.08333" stroke-linecap="round" stroke-linejoin="round"/>
</svg>
