<svg width="49" height="49" viewBox="0 0 49 49" fill="none" xmlns="http://www.w3.org/2000/svg">
<g clip-path="url(#clip0_173_441)">
<path d="M24.4 28.4665C24.1967 28.4665 23.9933 28.4665 23.79 28.2631L1.42333 20.1298C0.61 19.9265 0 19.1131 0 18.2998C0 17.4865 0.61 16.6731 1.42333 16.4698L23.79 8.33646C24.1967 8.13313 24.8067 8.13313 25.2133 8.33646L47.58 16.4698C48.19 16.6731 48.8 17.4865 48.8 18.2998C48.8 19.1131 48.19 19.9265 47.3767 20.1298L25.01 28.2631C24.8067 28.4665 24.6033 28.4665 24.4 28.4665ZM7.93 18.2998L24.4 24.1965L40.87 18.2998L24.4 12.4031L7.93 18.2998Z" fill="#3C83F6"/>
<path d="M38.6339 40.6669H24.4005C23.1805 40.6669 22.3672 39.8536 22.3672 38.6336C22.3672 37.4136 23.1805 36.6002 24.4005 36.6002H36.6005C36.3972 31.3136 35.1772 26.8402 33.1439 23.5869C32.5339 22.5702 32.9405 21.3502 33.7539 20.7402C34.7705 20.1302 35.9905 20.5369 36.6005 21.3502C39.2439 25.6202 40.6672 31.5169 40.6672 38.4302C40.6672 39.8536 39.8539 40.6669 38.6339 40.6669Z" fill="#3C83F6"/>
<path d="M24.3995 40.6667H10.1661C8.94615 40.6667 8.13281 39.8534 8.13281 38.6334C8.13281 31.7201 9.55615 25.8234 12.1995 21.5534C12.8095 20.5367 14.0295 20.3334 15.0461 20.9434C16.0628 21.5534 16.2661 22.7734 15.6561 23.7901C13.6228 27.0434 12.4028 31.5167 12.1995 36.8034H24.3995C25.6195 36.8034 26.4328 37.6167 26.4328 38.8367C26.4328 40.0567 25.6195 40.6667 24.3995 40.6667ZM44.7328 40.6667C43.5128 40.6667 42.6995 39.8534 42.6995 38.6334V18.3001C42.6995 17.0801 43.5128 16.2667 44.7328 16.2667C45.9528 16.2667 46.7661 17.0801 46.7661 18.3001V38.6334C46.7661 39.8534 45.9528 40.6667 44.7328 40.6667Z" fill="#3C83F6"/>
</g>
<defs>
<clipPath id="clip0_173_441">
<rect width="48.8" height="48.8" fill="white"/>
</clipPath>
</defs>
</svg>
