<svg width="22" height="22" viewBox="0 0 22 22" fill="none" xmlns="http://www.w3.org/2000/svg">
<path d="M17.9202 10.7521V19.7121H3.58423V10.7521" stroke="white" stroke-width="1.5" stroke-linecap="round" stroke-linejoin="round"/>
<path d="M19.712 6.27209H1.79199V10.7521H19.712V6.27209Z" stroke="white" stroke-width="1.5" stroke-linecap="round" stroke-linejoin="round"/>
<path d="M10.7522 19.7121V6.27209" stroke="white" stroke-linecap="round" stroke-linejoin="round"/>
<path d="M10.7522 6.27211H6.72022C6.12614 6.27211 5.55639 6.03612 5.13631 5.61603C4.71622 5.19595 4.48022 4.6262 4.48022 4.03211C4.48022 3.43803 4.71622 2.86828 5.13631 2.4482C5.55639 2.02811 6.12614 1.79211 6.72022 1.79211C9.85622 1.79211 10.7522 6.27211 10.7522 6.27211Z" stroke="white" stroke-width="1.5" stroke-linecap="round" stroke-linejoin="round"/>
<path d="M10.7522 6.27211H14.7842C15.3783 6.27211 15.948 6.03612 16.3681 5.61603C16.7882 5.19595 17.0242 4.6262 17.0242 4.03211C17.0242 3.43803 16.7882 2.86828 16.3681 2.4482C15.948 2.02811 15.3783 1.79211 14.7842 1.79211C11.6482 1.79211 10.7522 6.27211 10.7522 6.27211Z" stroke="white" stroke-width="1.5" stroke-linecap="round" stroke-linejoin="round"/>
</svg>
