<svg width="27" height="27" viewBox="0 0 27 27" fill="none" xmlns="http://www.w3.org/2000/svg">
<g clip-path="url(#clip0_56_51)">
<path d="M10.125 21.3751C4.5 23.0626 4.5 18.5626 2.25 18.0001M18 24.7501V20.3964C18.0422 19.8599 17.9697 19.3206 17.7874 18.8144C17.6051 18.3081 17.317 17.8465 16.9425 17.4601C20.475 17.0664 24.1875 15.7276 24.1875 9.58511C24.1872 8.01442 23.583 6.50396 22.5 5.36636C23.0128 3.99218 22.9766 2.47326 22.3987 1.12511C22.3987 1.12511 21.0713 0.731363 18 2.79011C15.4215 2.09129 12.7035 2.09129 10.125 2.79011C7.05375 0.731363 5.72625 1.12511 5.72625 1.12511C5.14842 2.47326 5.11216 3.99218 5.625 5.36636C4.53389 6.5124 3.92909 8.03651 3.9375 9.61886C3.9375 15.7164 7.65 17.0551 11.1825 17.4939C10.8124 17.8763 10.5269 18.3324 10.3447 18.8325C10.1625 19.3326 10.0877 19.8654 10.125 20.3964V24.7501" stroke="black" stroke-width="2.25" stroke-linecap="round" stroke-linejoin="round"/>
</g>
<defs>
<clipPath id="clip0_56_51">
<rect width="27" height="27" fill="white"/>
</clipPath>
</defs>
</svg>
