<svg width="31" height="31" viewBox="0 0 31 31" fill="none" xmlns="http://www.w3.org/2000/svg">
<g clip-path="url(#clip0_423_133)">
<path d="M16.9725 3.8401C10.4573 3.6609 5.11969 8.8961 5.11969 15.3601H2.82849C2.25249 15.3601 1.97089 16.0513 2.38049 16.4481L5.95169 20.0321C6.20769 20.2881 6.60449 20.2881 6.86049 20.0321L10.4317 16.4481C10.8285 16.0513 10.5469 15.3601 9.97089 15.3601H7.67969C7.67969 10.3681 11.7501 6.3361 16.7677 6.4001C21.5293 6.4641 25.5357 10.4705 25.5997 15.2321C25.6637 20.2369 21.6317 24.3201 16.6397 24.3201C14.5789 24.3201 12.6717 23.6161 11.1613 22.4257C10.6493 22.0289 9.93249 22.0673 9.47169 22.5281C8.93409 23.0657 8.97249 23.9745 9.57409 24.4353C11.5197 25.9713 13.9645 26.8801 16.6397 26.8801C23.1037 26.8801 28.3389 21.5425 28.1597 15.0273C27.9933 9.0241 22.9757 4.0065 16.9725 3.8401ZM16.3197 10.2401C15.7949 10.2401 15.3597 10.6753 15.3597 11.2001V15.9105C15.3597 16.3585 15.6029 16.7809 15.9869 17.0113L19.9805 19.3793C20.4413 19.6481 21.0301 19.4945 21.2989 19.0465C21.5677 18.5857 21.4141 17.9969 20.9661 17.7281L17.2797 15.5393V11.1873C17.2797 10.6753 16.8445 10.2401 16.3197 10.2401Z" fill="white"/>
</g>
<defs>
<clipPath id="clip0_423_133">
<rect width="30.72" height="30.72" fill="white"/>
</clipPath>
</defs>
</svg>
