<svg width="22" height="22" viewBox="0 0 22 22" fill="none" xmlns="http://www.w3.org/2000/svg">
<g clip-path="url(#clip0_589_996)">
<path d="M18.816 8.95987C18.816 15.2319 10.752 20.6079 10.752 20.6079C10.752 20.6079 2.68799 15.2319 2.68799 8.95987C2.68799 6.82117 3.53759 4.77006 5.04988 3.25777C6.56217 1.74547 8.61328 0.895874 10.752 0.895874C12.8907 0.895874 14.9418 1.74547 16.4541 3.25777C17.9664 4.77006 18.816 6.82117 18.816 8.95987Z" stroke="white" stroke-width="1.5" stroke-linecap="round" stroke-linejoin="round"/>
<path d="M10.7522 11.6479C12.2368 11.6479 13.4402 10.4444 13.4402 8.95985C13.4402 7.47531 12.2368 6.27185 10.7522 6.27185C9.26767 6.27185 8.06421 7.47531 8.06421 8.95985C8.06421 10.4444 9.26767 11.6479 10.7522 11.6479Z" stroke="white" stroke-width="1.5" stroke-linecap="round" stroke-linejoin="round"/>
</g>
<defs>
<clipPath id="clip0_589_996">
<rect width="21.504" height="21.504" fill="white"/>
</clipPath>
</defs>
</svg>
