<svg width="36" height="36" viewBox="0 0 36 36" fill="none" xmlns="http://www.w3.org/2000/svg">
<path d="M31.8156 23.8351C30.8613 26.0918 29.3688 28.0804 27.4684 29.6271C25.5681 31.1737 23.3178 32.2313 20.9143 32.7073C18.5108 33.1833 16.0272 33.0633 13.6808 32.3578C11.3344 31.6523 9.19654 30.3827 7.45413 28.6601C5.71173 26.9375 4.41783 24.8142 3.68556 22.476C2.95329 20.1378 2.80495 17.6558 3.2535 15.2471C3.70206 12.8383 4.73385 10.5761 6.25867 8.65816C7.7835 6.74026 9.75493 5.22509 12.0006 4.24512" stroke="#3C83F6" stroke-width="3" stroke-linecap="round" stroke-linejoin="round"/>
<path d="M33 18C33 16.0302 32.612 14.0796 31.8582 12.2597C31.1044 10.4399 29.9995 8.78628 28.6066 7.3934C27.2137 6.00052 25.5601 4.89563 23.7403 4.14181C21.9204 3.38799 19.9698 3 18 3V18H33Z" stroke="#3C83F6" stroke-width="3" stroke-linecap="round" stroke-linejoin="round"/>
</svg>
