<svg width="49" height="49" viewBox="0 0 49 49" fill="none" xmlns="http://www.w3.org/2000/svg">
<path d="M10.9158 35.4014L11.6292 25.1991L7.54825 24.9137L6.83483 35.1161L10.9158 35.4014ZM18.1787 19.5057L30.4215 20.3618L30.7069 16.2809L18.464 15.4248L18.1787 19.5057ZM36.1149 26.9113L35.4014 37.1136L39.4824 37.399L40.1958 27.1966L36.1149 26.9113ZM28.852 42.807L16.6091 41.9509L16.3238 46.0318L28.5666 46.8879L28.852 42.807ZM35.4014 37.1136C35.2629 39.0951 35.169 40.3756 34.9761 41.3105C34.7953 42.1871 34.5837 42.4512 34.4175 42.5956L37.1014 45.683C38.2141 44.7159 38.7092 43.462 38.9827 42.1371C39.244 40.8702 39.3519 39.265 39.4824 37.399L35.4014 37.1136ZM28.5666 46.8879C30.4326 47.0184 32.0372 47.1349 33.3281 47.0526C34.6782 46.9661 35.9888 46.6503 37.1014 45.683L34.4175 42.5956C34.2514 42.74 33.9604 42.9128 33.0672 42.9699C32.1146 43.0308 30.8335 42.9456 28.852 42.807L28.5666 46.8879ZM30.4215 20.3618C32.403 20.5004 33.6835 20.5942 34.6183 20.7871C35.495 20.968 35.759 21.1796 35.9035 21.3457L38.9909 18.6618C38.0238 17.5492 36.7699 17.054 35.445 16.7806C34.178 16.5192 32.5729 16.4114 30.7069 16.2809L30.4215 20.3618ZM40.1958 27.1966C40.3263 25.3306 40.4428 23.7261 40.3604 22.4351C40.274 21.085 39.9582 19.7745 38.9909 18.6618L35.9035 21.3457C36.0479 21.5119 36.2207 21.8028 36.2778 22.6961C36.3387 23.6487 36.2534 24.9298 36.1149 26.9113L40.1958 27.1966ZM11.6292 25.1991C11.7678 23.2176 11.8616 21.9371 12.0545 21.0022C12.2354 20.1256 12.4469 19.8615 12.6131 19.7171L9.92922 16.6296C8.81655 17.5969 8.32135 18.8507 8.048 20.1756C7.78663 21.4426 7.67874 23.0477 7.54825 24.9137L11.6292 25.1991ZM18.464 15.4248C16.5979 15.2943 14.9934 15.1777 13.7025 15.2602C12.3524 15.3465 11.0419 15.6624 9.92922 16.6296L12.6131 19.7171C12.7793 19.5727 13.0701 19.3999 13.9635 19.3428C14.9161 19.2819 16.1972 19.3672 18.1787 19.5057L18.464 15.4248ZM6.83483 35.1161C6.70435 36.9821 6.5878 38.5866 6.6703 39.8776C6.7566 41.2277 7.07248 42.5383 8.03971 43.6508L11.1272 40.967C10.9827 40.8008 10.81 40.5099 10.7529 39.6166C10.692 38.664 10.7772 37.3829 10.9158 35.4014L6.83483 35.1161ZM16.6091 41.9509C14.6277 41.8123 13.3472 41.7185 12.4123 41.5256C11.5356 41.3447 11.2716 41.1331 11.1272 40.967L8.03971 43.6508C9.00694 44.7636 10.2607 45.2587 11.5857 45.5322C12.8526 45.7934 14.4577 45.9014 16.3238 46.0318L16.6091 41.9509ZM26.4832 18.036L26.9113 11.9146L22.8303 11.6292L22.4023 17.7506L26.4832 18.036ZM27.953 26.3405L27.6676 30.4215L31.7485 30.7069L32.0339 26.6259L27.953 26.3405ZM15.7101 25.4844L15.4248 29.5654L19.5057 29.8508L19.7911 25.7698L15.7101 25.4844ZM13.5957 34.9883L14.9376 36.532L18.0251 33.8481L16.6831 32.3044L13.5957 34.9883ZM17.7397 37.9291L28.2922 38.667L28.5775 34.586L18.0251 33.8481L17.7397 37.9291ZM31.2614 37.6734L32.8051 36.3315L30.1213 33.2441L28.5775 34.586L31.2614 37.6734ZM28.2922 38.667C29.3744 38.7426 30.4425 38.3853 31.2614 37.6734L28.5775 34.586L28.2922 38.667ZM14.9376 36.532C15.6494 37.3509 16.6574 37.8534 17.7397 37.9291L18.0251 33.8481L14.9376 36.532ZM1.42684 24.4857L0.570735 36.7285L4.65168 37.0139L5.50778 24.771L1.42684 24.4857ZM42.2363 27.3393L41.3802 39.5822L45.4611 39.8675L46.3172 27.6247L42.2363 27.3393ZM27.1967 7.83362C27.1179 8.96053 26.1404 9.81021 25.0135 9.73141L24.7281 13.8123C28.109 14.0488 31.0412 11.4997 31.2776 8.11899L27.1967 7.83362ZM25.0135 9.73141C23.8865 9.6526 23.0369 8.67516 23.1157 7.54825L19.0348 7.26288C18.7984 10.6436 21.3473 13.5759 24.7281 13.8123L25.0135 9.73141ZM23.1157 7.54825C23.1945 6.42132 24.1719 5.57166 25.2989 5.65046L25.5842 1.56952C22.2034 1.33311 19.2712 3.88211 19.0348 7.26288L23.1157 7.54825ZM25.2989 5.65046C26.4258 5.72927 27.2755 6.70669 27.1967 7.83362L31.2776 8.11899C31.514 4.73821 28.9651 1.80593 25.5842 1.56952L25.2989 5.65046Z" fill="#F8FAFF"/>
</svg>
