<svg width="29" height="29" viewBox="0 0 29 29" fill="none" xmlns="http://www.w3.org/2000/svg">
<g clip-path="url(#clip0_177_1661)">
<path d="M20.4 25.1999V22.7999C20.4 21.5268 19.8942 20.3059 18.9941 19.4058C18.0939 18.5056 16.873 17.9999 15.6 17.9999H5.99995C4.72691 17.9999 3.50601 18.5056 2.60584 19.4058C1.70566 20.3059 1.19995 21.5268 1.19995 22.7999V25.1999" stroke="#F8FAFF" stroke-width="2.4" stroke-linecap="round" stroke-linejoin="round"/>
<path d="M10.8 13.1999C13.451 13.1999 15.6 11.0508 15.6 8.39985C15.6 5.74889 13.451 3.59985 10.8 3.59985C8.14903 3.59985 6 5.74889 6 8.39985C6 11.0508 8.14903 13.1999 10.8 13.1999Z" stroke="#F8FAFF" stroke-width="2.4" stroke-linecap="round" stroke-linejoin="round"/>
<path d="M27.6 25.1998V22.7998C27.5992 21.7362 27.2452 20.7031 26.5936 19.8625C25.9421 19.022 25.0298 18.4216 24 18.1558" stroke="#F8FAFF" stroke-width="2.4" stroke-linecap="round" stroke-linejoin="round"/>
<path d="M19.2 3.75574C20.2324 4.0201 21.1476 4.62058 21.8011 5.46251C22.4546 6.30444 22.8094 7.33993 22.8094 8.40574C22.8094 9.47154 22.4546 10.507 21.8011 11.349C21.1476 12.1909 20.2324 12.7914 19.2 13.0557" stroke="#F8FAFF" stroke-width="2.4" stroke-linecap="round" stroke-linejoin="round"/>
</g>
<defs>
<clipPath id="clip0_177_1661">
<rect width="28.8" height="28.8" fill="white"/>
</clipPath>
</defs>
</svg>
