<svg width="49" height="49" viewBox="0 0 49 49" fill="none" xmlns="http://www.w3.org/2000/svg">
<path d="M37.8007 41.8949L38.0623 38.154C38.2011 36.1697 37.5459 34.2116 36.2409 32.7104C34.9359 31.2092 33.088 30.2879 31.1038 30.1491L16.1403 29.1028C14.156 28.964 12.1979 29.6192 10.6967 30.9242C9.19548 32.2292 8.27415 34.077 8.1354 36.0613L7.87381 39.8022" stroke="white" stroke-width="5" stroke-linecap="round" stroke-linejoin="round"/>
<path d="M24.1457 22.1443C28.2778 22.4333 31.8617 19.3178 32.1506 15.1858C32.4396 11.0537 29.3241 7.46983 25.1921 7.18089C21.06 6.89195 17.4761 10.0074 17.1872 14.1394C16.8982 18.2715 20.0137 21.8554 24.1457 22.1443Z" stroke="white" stroke-width="5" stroke-linecap="round" stroke-linejoin="round"/>
</svg>
