<svg width="3821" height="765" viewBox="0 0 3821 765" fill="none" xmlns="http://www.w3.org/2000/svg">
<path d="M0 218.571L21.2278 226.199L42.4556 233.818L63.6833 241.418L84.9111 248.991L106.139 256.526L127.367 264.015L148.594 271.449L169.822 278.818L191.05 286.114L212.278 293.327L233.506 300.45L254.733 307.472L275.961 314.387L297.189 321.185L318.417 327.857L339.644 334.397L360.872 340.795L382.1 347.045L403.328 353.138L424.556 359.066L445.783 364.824L467.011 370.404L488.239 375.799L509.467 381.002L530.694 386.007L551.922 390.808L573.15 395.399L594.378 399.775L615.606 403.931L636.833 407.86L658.061 411.559L679.289 415.022L700.517 418.246L721.744 421.227L742.972 423.961L764.2 426.445L785.428 428.676L806.656 430.65L827.883 432.367L849.111 433.822L870.339 435.016L891.567 435.945L912.794 436.61L934.022 437.01L955.25 437.143L976.478 437.01L997.706 436.61L1018.93 435.945L1040.16 435.016L1061.39 433.822L1082.62 432.367L1103.84 430.65L1125.07 428.676L1146.3 426.445L1167.53 423.961L1188.76 421.227L1209.98 418.246L1231.21 415.022L1252.44 411.559L1273.67 407.86L1294.89 403.931L1316.12 399.775L1337.35 395.399L1358.58 390.808L1379.81 386.007L1401.03 381.002L1422.26 375.799L1443.49 370.404L1464.72 364.824L1485.94 359.066L1507.17 353.138L1528.4 347.045L1549.63 340.795L1570.86 334.397L1592.08 327.857L1613.31 321.185L1634.54 314.387L1655.77 307.472L1676.99 300.45L1698.22 293.327L1719.45 286.114L1740.68 278.818L1761.91 271.449L1783.13 264.015L1804.36 256.526L1825.59 248.991L1846.82 241.418L1868.04 233.818L1889.27 226.199L1910.5 218.571L1931.73 210.943L1952.96 203.325L1974.18 195.725L1995.41 188.152L2016.64 180.617L2037.87 173.128L2059.09 165.694L2080.32 158.325L2101.55 151.029L2122.78 143.816L2144.01 136.693L2165.23 129.67L2186.46 122.756L2207.69 115.958L2228.92 109.286L2250.14 102.746L2271.37 96.3478L2292.6 90.0984L2313.83 84.0054L2335.06 78.0764L2356.28 72.3186L2377.51 66.7389L2398.74 61.3443L2419.97 56.1412L2441.19 51.136L2462.42 46.3348L2483.65 41.7434L2504.88 37.3675L2526.11 33.2123L2547.33 29.283L2568.56 25.5843L2589.79 22.1207L2611.02 18.8965L2632.24 15.9155L2653.47 13.1815L2674.7 10.6976L2695.93 8.46708L2717.16 6.49251L2738.38 4.7763L2759.61 3.32058L2780.84 2.12711L2802.07 1.19735L2823.29 0.532435L2844.52 0.133149L2865.75 0L2886.98 0.133149L2908.21 0.532435L2929.43 1.19735L2950.66 2.12711L2971.89 3.32058L2993.12 4.7763L3014.34 6.49251L3035.57 8.46708L3056.8 10.6976L3078.03 13.1815L3099.26 15.9155L3120.48 18.8965L3141.71 22.1207L3162.94 25.5843L3184.17 29.283L3205.39 33.2123L3226.62 37.3675L3247.85 41.7434L3269.08 46.3348L3290.31 51.136L3311.53 56.1412L3332.76 61.3443L3353.99 66.7389L3375.22 72.3186L3396.44 78.0764L3417.67 84.0054L3438.9 90.0984L3460.13 96.3478L3481.36 102.746L3502.58 109.286L3523.81 115.958L3545.04 122.756L3566.27 129.67L3587.49 136.693L3608.72 143.816L3629.95 151.029L3651.18 158.325L3672.41 165.694L3693.63 173.128L3714.86 180.617L3736.09 188.152L3757.32 195.725L3778.54 203.325L3799.77 210.943L3821 218.571V765H0V218.571Z" fill="url(#paint0_linear_346_1143)"/>
<defs>
<linearGradient id="paint0_linear_346_1143" x1="1910.5" y1="110.808" x2="1910.57" y2="714.567" gradientUnits="userSpaceOnUse">
<stop stop-color="#3C83F6"/>
<stop offset="1" stop-color="#0A0A0A"/>
</linearGradient>
</defs>
</svg>
