<svg width="43" height="44" viewBox="0 0 43 44" fill="none" xmlns="http://www.w3.org/2000/svg">
<path d="M39.9032 43.1917L40.2171 38.7027C40.3836 36.3215 39.4923 33.9644 37.7392 32.1499C35.9861 30.3354 33.5149 29.212 30.8692 29.027L10.918 27.6319C8.27226 27.4469 5.66877 28.2154 3.68024 29.7683C1.69171 31.3212 0.481021 33.5313 0.314516 35.9124L0.000612207 40.4014" stroke="#F8FAFF" stroke-width="5" stroke-linecap="round" stroke-linejoin="round"/>
<path d="M21.5207 19.3515C27.0301 19.7367 31.7775 16.0294 32.1242 11.071C32.4709 6.1125 28.2858 1.78057 22.7764 1.39532C17.267 1.01006 12.5196 4.71738 12.1729 9.67583C11.8262 14.6343 16.0114 18.9662 21.5207 19.3515Z" stroke="#F8FAFF" stroke-width="5" stroke-linecap="round" stroke-linejoin="round"/>
</svg>
