<svg width="3821" height="864" viewBox="0 0 3821 864" fill="none" xmlns="http://www.w3.org/2000/svg">
<path d="M0 246.857L21.2278 255.472L42.4556 264.077L63.6833 272.661L84.9111 281.213L106.139 289.723L127.367 298.182L148.594 306.577L169.822 314.9L191.05 323.14L212.278 331.287L233.506 339.331L254.733 347.263L275.961 355.072L297.189 362.75L318.417 370.286L339.644 377.671L360.872 384.898L382.1 391.956L403.328 398.838L424.556 405.534L445.783 412.037L467.011 418.339L488.239 424.431L509.467 430.308L530.694 435.961L551.922 441.383L573.15 446.569L594.378 451.511L615.606 456.204L636.833 460.642L658.061 464.819L679.289 468.731L700.517 472.372L721.744 475.739L742.972 478.827L764.2 481.632L785.428 484.151L806.656 486.382L827.883 488.32L849.111 489.964L870.339 491.312L891.567 492.362L912.794 493.113L934.022 493.564L955.25 493.714L976.478 493.564L997.706 493.113L1018.93 492.362L1040.16 491.312L1061.39 489.964L1082.62 488.32L1103.84 486.382L1125.07 484.151L1146.3 481.632L1167.53 478.827L1188.76 475.739L1209.98 472.372L1231.21 468.731L1252.44 464.819L1273.67 460.642L1294.89 456.204L1316.12 451.511L1337.35 446.569L1358.58 441.383L1379.81 435.961L1401.03 430.308L1422.26 424.431L1443.49 418.339L1464.72 412.037L1485.94 405.534L1507.17 398.838L1528.4 391.956L1549.63 384.898L1570.86 377.671L1592.08 370.286L1613.31 362.75L1634.54 355.072L1655.77 347.263L1676.99 339.331L1698.22 331.287L1719.45 323.14L1740.68 314.9L1761.91 306.577L1783.13 298.182L1804.36 289.723L1825.59 281.213L1846.82 272.661L1868.04 264.077L1889.27 255.472L1910.5 246.857L1931.73 238.242L1952.96 229.637L1974.18 221.054L1995.41 212.501L2016.64 203.991L2037.87 195.533L2059.09 187.137L2080.32 178.814L2101.55 170.574L2122.78 162.427L2144.01 154.383L2165.23 146.451L2186.46 138.642L2207.69 130.965L2228.92 123.429L2250.14 116.043L2271.37 108.816L2292.6 101.758L2313.83 94.8767L2335.06 88.1804L2356.28 81.6775L2377.51 75.3757L2398.74 69.283L2419.97 63.4065L2441.19 57.7536L2462.42 52.331L2483.65 47.1455L2504.88 42.2033L2526.11 37.5104L2547.33 33.0726L2568.56 28.8952L2589.79 24.9834L2611.02 21.3419L2632.24 17.9752L2653.47 14.8873L2674.7 12.082L2695.93 9.56281L2717.16 7.33272L2738.38 5.39441L2759.61 3.7503L2780.84 2.40238L2802.07 1.3523L2823.29 0.601339L2844.52 0.15038L2865.75 0L2886.98 0.15038L2908.21 0.601339L2929.43 1.3523L2950.66 2.40238L2971.89 3.7503L2993.12 5.39441L3014.34 7.33272L3035.57 9.56281L3056.8 12.082L3078.03 14.8873L3099.26 17.9752L3120.48 21.3419L3141.71 24.9834L3162.94 28.8952L3184.17 33.0726L3205.39 37.5104L3226.62 42.2033L3247.85 47.1455L3269.08 52.331L3290.31 57.7536L3311.53 63.4065L3332.76 69.283L3353.99 75.3757L3375.22 81.6775L3396.44 88.1804L3417.67 94.8767L3438.9 101.758L3460.13 108.816L3481.36 116.043L3502.58 123.429L3523.81 130.965L3545.04 138.642L3566.27 146.451L3587.49 154.383L3608.72 162.427L3629.95 170.574L3651.18 178.814L3672.41 187.137L3693.63 195.533L3714.86 203.991L3736.09 212.501L3757.32 221.054L3778.54 229.637L3799.77 238.242L3821 246.857V864H0V246.857Z" fill="url(#paint0_linear_346_1143)"/>
<defs>
<linearGradient id="paint0_linear_346_1143" x1="1910.5" y1="125.148" x2="1910.58" y2="807.041" gradientUnits="userSpaceOnUse">
<stop stop-color="#3C83F6"/>
<stop offset="1" stop-color="#0A0A0A"/>
</linearGradient>
</defs>
</svg>
